<svg xmlns="http://www.w3.org/2000/svg" width="40" height="40" viewBox="0 2 50 40">
  <defs>
    <style>
      .cls-1 {
        fill: none;
        stroke: #000;
        stroke-width: 1.5px;
        fill-rule: evenodd;
      }
    </style>
  </defs>
  <path class="cls-1" d="M24.576,0.616H15.814L14.221,2.209V6.989L12.627,8.582,8.645,6.192H6.255L1.476,14.158v2.39l3.983,2.39v2.39l-3.186,2.39L1.476,26.9l4.779,7.169H9.441l2.389-1.593,2.39,0.8v3.983l1.593,2.39h8.762l2.389-2.39V34.071l1.593-1.593,3.186,1.593h2.39L38.913,26.9V23.716l-3.983-2.39V19.733l3.983-3.186V13.361L34.134,6.192h-2.39l-2.39,1.593-2.39-1.593V2.209Z" transform="translate(-0.719)"/>
  <circle cx="19.875" cy="20.25" r="6.875"/>
</svg>
