<svg xmlns="http://www.w3.org/2000/svg" width="35.531" height="36.969" viewBox="0 0 35.531 36.969">
  <defs>
    <style>
      .cls-1 {
        fill: none;
        stroke: #000;
        stroke-width: 1.5px;
      }

      .cls-1, .cls-2 {
        fill-rule: evenodd;
      }
    </style>
  </defs>
  <path class="cls-1" d="M24.178,2.283H16.213L14.764,3.731V8.076L13.316,9.524,9.7,7.352H7.523L3.178,14.593v2.172L6.8,18.938V21.11L3.9,23.282l-0.724,2.9L7.523,32.7h2.9l2.172-1.448,2.172,0.724v3.621l1.448,2.172h7.965l2.172-2.172V32.7L27.8,31.248,30.7,32.7h2.172l4.345-6.517v-2.9L33.592,21.11V19.662l3.621-2.9v-2.9L32.867,7.352H30.7L28.523,8.8,26.35,7.352V3.731Z" transform="translate(-2.438 -1.531)"/>
  <path class="cls-2" d="M20.568,13.856a6.27,6.27,0,1,1-6.255,6.27A6.263,6.263,0,0,1,20.568,13.856Z" transform="translate(-2.438 -1.531)"/>
</svg>
