<svg xmlns="http://www.w3.org/2000/svg" width="125.531" height="130.656" viewBox="0 0 125.531 130.656">
  <defs>
    <style>
      .cls-1 {
        fill: none;
        stroke: #000;
        stroke-width: 5px;
        fill-rule: evenodd;
      }
    </style>
  </defs>
  <path class="cls-1" d="M95.82,20.739H67.61l-5.129,5.129V41.255l-5.129,5.129L44.529,38.69H36.836L21.449,64.335v7.694l12.823,7.694v7.694L24.014,95.11l-2.565,10.258,15.387,23.08H47.094l7.693-5.129,7.694,2.565v12.822L67.61,146.4H95.82l7.693-7.694V128.448l5.13-5.129,10.258,5.129h7.693l15.387-23.08V95.11l-12.822-7.693V82.287l12.822-10.258V61.771L126.594,38.69H118.9l-7.694,5.129-7.694-5.129V25.868Z" transform="translate(-18.938 -18.25)"/>
  <circle cx="64.047" cy="65.719" r="22.203"/>
</svg>
