<?xml version="1.0" standalone="no"?>
<!DOCTYPE svg PUBLIC "-//W3C//DTD SVG 20010904//EN"
 "http://www.w3.org/TR/2001/REC-SVG-20010904/DTD/svg10.dtd">
<svg version="1.0" xmlns="http://www.w3.org/2000/svg"
 width="30.000000pt" height="30.000000pt" viewBox="0 0 30.000000 30.000000"
 preserveAspectRatio="xMidYMid meet">
<metadata>
Created by potrace 1.16, written by Peter Selinger 2001-2019
</metadata>
<g transform="translate(0.000000,30.000000) scale(0.100000,-0.100000)"
fill="#000000" stroke="none">
<path d="M64 236 c-50 -50 -50 -122 0 -172 30 -30 40 -34 84 -34 34 0 57 6 73
19 21 17 22 20 7 26 -9 4 -25 2 -37 -4 -55 -30 -131 16 -131 79 0 42 47 90 87
90 35 0 72 -23 55 -34 -24 -14 -11 -26 28 -26 l40 0 0 47 c0 43 -1 45 -17 30
-16 -13 -20 -14 -37 -1 -11 8 -42 14 -69 14 -42 0 -54 -5 -83 -34z"/>
</g>
</svg>
